<svg width="130" height="61" viewBox="0 0 130 61" fill="none" xmlns="http://www.w3.org/2000/svg">
<path d="M112.166 0.660034C113.074 0.660034 114.009 0.7667 114.971 0.980034C115.986 1.19337 116.841 1.5667 117.535 2.10003C118.283 2.63337 118.657 3.35337 118.657 4.26004C118.657 5.11337 118.39 5.83337 117.856 6.42003C117.322 6.95337 116.68 7.22003 115.932 7.22003C115.452 7.22003 114.784 7.0867 113.929 6.82003C113.074 6.50003 112.192 6.34003 111.284 6.34003C110.055 6.34003 109.04 6.6067 108.239 7.14004C107.491 7.67337 106.93 8.39337 106.556 9.30003C106.235 10.1534 106.075 11.1134 106.075 12.18V56.42C106.075 57.3267 105.754 58.1 105.113 58.74C104.525 59.38 103.777 59.7 102.869 59.7C101.907 59.7 101.133 59.38 100.545 58.74C99.9571 58.1 99.6632 57.3267 99.6632 56.42V12.26C99.6632 8.6867 100.759 5.86003 102.949 3.78003C105.193 1.70003 108.265 0.660034 112.166 0.660034ZM114.41 18.98C115.265 18.98 115.986 19.2734 116.574 19.86C117.161 20.3934 117.455 21.0867 117.455 21.94C117.455 22.7934 117.161 23.5134 116.574 24.1C115.986 24.6334 115.265 24.9 114.41 24.9H94.2936C93.4387 24.9 92.7174 24.6067 92.1297 24.02C91.542 23.4334 91.2481 22.74 91.2481 21.94C91.2481 21.0334 91.542 20.3134 92.1297 19.78C92.7174 19.2467 93.4387 18.98 94.2936 18.98H114.41Z" fill="#267196"/>
<path d="M86.4264 56.42C86.4264 57.3267 86.1058 58.1 85.4646 58.74C84.8235 59.38 84.0487 59.7 83.1405 59.7C82.2322 59.7 81.4841 59.38 80.8964 58.74C80.3087 58.1 80.0148 57.3267 80.0148 56.42V3.7C80.0148 2.79333 80.3087 2.04667 80.8964 1.46C81.5376 0.819998 82.3123 0.5 83.2206 0.5C84.1823 0.5 84.957 0.819998 85.5448 1.46C86.1325 2.04667 86.4264 2.79333 86.4264 3.7V56.42Z" fill="#267196"/>
<path d="M56.5934 60.5001C52.319 60.5001 48.579 59.5934 45.3732 57.7801C42.1675 55.9667 39.6563 53.4867 37.8397 50.34C36.0765 47.1401 35.1949 43.4601 35.1949 39.3C35.1949 34.66 36.1032 30.7134 37.9198 27.46C39.7899 24.1534 42.1942 21.6467 45.1328 19.94C48.1248 18.18 51.2772 17.3 54.5898 17.3C57.0475 17.3 59.4251 17.7534 61.7226 18.66C64.0201 19.5667 66.0504 20.9 67.8135 22.66C69.5767 24.3667 70.9926 26.4467 72.0612 28.9C73.1298 31.3 73.6908 33.9934 73.7442 36.98C73.7442 37.8334 73.4236 38.5534 72.7825 39.14C72.1413 39.7267 71.3933 40.02 70.5384 40.02H38.8816L37.439 34.5H68.2944L67.0121 35.62V33.86C66.7984 31.6734 66.0504 29.8067 64.7681 28.2601C63.5392 26.6601 62.0165 25.4334 60.1999 24.5801C58.4367 23.7267 56.5667 23.3 54.5898 23.3C52.9869 23.3 51.384 23.5934 49.7811 24.18C48.2317 24.7134 46.8158 25.62 45.5335 26.9C44.3046 28.1267 43.2895 29.7267 42.488 31.7001C41.74 33.6734 41.366 36.0467 41.366 38.8201C41.366 41.9134 41.9805 44.6334 43.2093 46.98C44.4916 49.3267 46.2548 51.1934 48.4988 52.58C50.7429 53.9134 53.3609 54.5801 56.353 54.5801C58.223 54.5801 59.8526 54.34 61.2417 53.86C62.6309 53.38 63.8331 52.7934 64.8482 52.1001C65.8634 51.3534 66.7182 50.6067 67.4128 49.8601C68.1074 49.3801 68.7753 49.14 69.4164 49.14C70.2179 49.14 70.859 49.4067 71.3399 49.9401C71.8742 50.4734 72.1413 51.1134 72.1413 51.8601C72.1413 52.7667 71.7139 53.5667 70.859 54.26C69.363 55.9134 67.3327 57.3801 64.7681 58.66C62.2035 59.8867 59.4786 60.5001 56.5934 60.5001Z" fill="#267196"/>
<path d="M1.16317 53.14C0.68231 52.4467 0.468593 51.7267 0.522022 50.98C0.575451 50.18 1.0296 49.4867 1.88447 48.9C2.41876 48.5267 3.0332 48.3667 3.72778 48.4201C4.47579 48.4734 5.14366 48.82 5.73138 49.46C7.2274 51.22 8.93714 52.6334 10.8606 53.7001C12.7841 54.7134 15.1349 55.22 17.9133 55.22C19.1956 55.1667 20.4779 54.9534 21.7602 54.5801C23.0425 54.2067 24.1111 53.5667 24.9659 52.6601C25.8742 51.7001 26.3284 50.4467 26.3284 48.9C26.3284 47.4067 25.8742 46.2334 24.9659 45.3801C24.0576 44.4734 22.8822 43.7534 21.4396 43.2201C19.997 42.6334 18.4208 42.1267 16.7111 41.7001C14.9479 41.2201 13.2115 40.6867 11.5017 40.1C9.79201 39.4601 8.24256 38.6867 6.8534 37.78C5.51766 36.82 4.42236 35.6467 3.56749 34.26C2.76605 32.82 2.36533 31.0867 2.36533 29.0601C2.36533 26.66 3.00649 24.58 4.28879 22.82C5.62452 21.0601 7.38769 19.7 9.57829 18.74C11.8223 17.78 14.2534 17.3 16.8714 17.3C18.3674 17.3 19.9169 17.4867 21.5197 17.8601C23.1761 18.18 24.7789 18.7667 26.3284 19.62C27.8778 20.42 29.2403 21.54 30.4157 22.98C30.8966 23.5134 31.1637 24.18 31.2172 24.98C31.2706 25.78 30.9233 26.5 30.1753 27.14C29.5876 27.5667 28.9197 27.7534 28.1717 27.7C27.4771 27.6467 26.8894 27.38 26.4085 26.9C25.2865 25.5667 23.8706 24.5534 22.1609 23.86C20.5046 23.1134 18.6613 22.7401 16.631 22.7401C15.3487 22.7401 14.0931 22.9267 12.8642 23.3C11.6353 23.6734 10.5934 24.3134 9.73858 25.22C8.93714 26.0734 8.53642 27.2734 8.53642 28.8201C8.58985 30.26 9.07071 31.4334 9.97901 32.34C10.8873 33.2467 12.1162 33.9934 13.6656 34.5801C15.2151 35.1134 16.9248 35.6467 18.7948 36.1801C20.5046 36.6067 22.1342 37.1134 23.6836 37.7001C25.2865 38.2334 26.7291 38.9534 28.0114 39.86C29.2937 40.7667 30.3089 41.9401 31.0569 43.3801C31.8049 44.7667 32.1789 46.5267 32.1789 48.66C32.1789 51.1134 31.4843 53.2467 30.0951 55.06C28.706 56.82 26.8627 58.1801 24.5652 59.1401C22.3212 60.0467 19.8902 60.5001 17.2721 60.5001C14.3335 60.5001 11.4216 59.9401 8.53642 58.8201C5.70467 57.7001 3.24692 55.8067 1.16317 53.14Z" fill="#267196"/>
<ellipse cx="122.705" cy="7.40139" rx="3.08246" ry="3.07692" fill="#267196"/>
<ellipse cx="127.02" cy="12.9398" rx="2.46597" ry="2.46154" fill="#267196"/>
<ellipse cx="126.404" cy="18.4782" rx="1.84948" ry="1.84615" fill="#267196"/>
</svg>
